# xmcd
#
# Track frame offsets:
#	150
#	13603
#	23321
#	35782
#	45316
#	56011
#	69206
#	82242
#	95504
#	109080
#	119828
#	135451
#
# Disc length: 1977 seconds
#
# Revision: 1
# Processed by: cddbd v1.5PL3 Copyright (c) Steve Scherf et al.
# Submitted via: audiograbber 1.82.02
#
DISCID=9a07b70c
DTITLE=Wildwood Valley Boys - Songs From Wildwood Valley
DYEAR=2003
DGENRE=Bluegrass
TTITLE0=Jeremiah Callahan's Medicine Show
TTITLE1=The Spirit of America
TTITLE2=The Big Man From Rosine
TTITLE3=I'm Not the Drifter
TTITLE4=Forever True
TTITLE5=Big Time Johnny
TTITLE6=Sweet Loretta
TTITLE7=Making Memories
TTITLE8=If I Could Just Hear Daddy
TTITLE9=Talkin' In My Sleep
TTITLE10=The Way I Am
TTITLE11=When You Are Lonely
EXTD=
EXTT0=
EXTT1=
EXTT2=
EXTT3=
EXTT4=
EXTT5=
EXTT6=
EXTT7=
EXTT8=
EXTT9=
EXTT10=
EXTT11=
PLAYORDER=
